<?xml version="1.0" encoding="UTF-8"?>
<!DOCTYPE svg PUBLIC "-//W3C//DTD SVG 1.1//EN" "http://www.w3.org/Graphics/SVG/1.1/DTD/svg11.dtd">
<!-- Creator: CorelDRAW 2018 (64 Bit Versión de evaluación) -->
<svg xmlns="http://www.w3.org/2000/svg" xml:space="preserve" width="44.818mm" height="55.834mm" version="1.1" style="shape-rendering:geometricPrecision; text-rendering:geometricPrecision; image-rendering:optimizeQuality; fill-rule:evenodd; clip-rule:evenodd"
viewBox="0 0 1458.89 1817.47"
 xmlns:xlink="http://www.w3.org/1999/xlink">
 <defs>
  <style type="text/css">
   <![CDATA[
    .fil0 {fill:#005794}
   ]]>
  </style>
 </defs>
 <g id="Capa_x0020_1">
  <metadata id="CorelCorpID_0Corel-Layer"/>
  <path class="fil0" d="M692.09 0l318.81 0 237.44 0 1.19 0 8.15 0 132.01 0 0 0.01 0.32 0.01c35.3,0.16 64.41,27.18 68.87,62.15l0 9.34 0 127.19 -0 0 0 987.01 0 9.34c-4.46,34.97 -33.57,61.99 -68.87,62.15l-0.32 0.01 -140.16 0c38.54,0 69.78,-32.01 69.78,-71.5l0 -0 0 -51.95 0 -932.98c-4.33,-34.5 -34.44,-61.22 -70.96,-61.22l-0 0 -51.95 0 -185.5 0 -318.81 0 -154.24 0 -51.95 0 -0 0c-37.65,0 -68.5,28.4 -71.29,64.45l0 74.89 70.81 0 253.72 0 237.44 0 1.19 0 8.15 0 132.01 0 0 0.01 0.32 0c35.31,0.16 64.41,27.19 68.87,62.16l0 9.34 0 127.19 -0 0 0 987.01 0 9.34c-4.46,34.97 -33.57,61.99 -68.87,62.16l-0.32 0 0 0.01 -140.16 0c38.54,0 69.78,-32.01 69.78,-71.5l0 -0.01 0 -51.95 0 -932.98c-4.33,-34.5 -34.44,-61.21 -70.96,-61.22l-0 0 -51.95 0 -185.5 0 -253.72 0 -222.61 0 -51.95 0 -0.01 0c-37.65,0 -68.5,28.4 -71.29,64.45l0 1130.55c2.79,36.04 33.64,64.45 71.29,64.45l0.01 0 51.95 0 46.26 0 231.34 0 521.88 0 51.95 0 0 0c39.49,-0 71.5,-31.24 71.5,-69.78l0 140.16 -0.01 0 -0 0.32c-0.16,35.3 -27.19,64.41 -62.16,68.87l-9.34 0 -573.83 0 -231.34 0 -98.2 0 -1.52 0 -7.82 0 -132.34 0 0 -0.01 -0.32 -0c-35.31,-0.17 -64.41,-27.19 -68.87,-62.16l0 -9.34 0 -1283.88 0 0 0 -111.68 0 -9.34c4.46,-34.97 33.57,-61.99 68.87,-62.16l0.32 -0 0 -0.01 132.33 0 7.82 0 1.52 0 64.18 0 0 -95.71 0 0 0 -111.68 0 -9.34c4.46,-34.97 33.57,-61.99 68.87,-62.15l0.32 -0.01 0 -0.01 132.33 0 7.82 0 1.52 0 206.18 0zm-384.24 978.16l566.62 0c19.19,0 34.89,20.1 34.89,44.66l0 0c0,24.56 -15.72,44.66 -34.89,44.66l-566.62 0c-19.17,0 -34.89,-20.1 -34.89,-44.66l0 0c0,-24.56 15.7,-44.66 34.89,-44.66zm0 190.86l566.62 0c19.19,0 34.89,20.1 34.89,44.66l0 0c0,24.56 -15.72,44.66 -34.89,44.66l-566.62 0c-19.17,0 -34.89,-20.1 -34.89,-44.66l0 0c0,-24.56 15.7,-44.66 34.89,-44.66zm-0.01 189.08l566.62 0c19.19,0 34.89,20.1 34.89,44.66l0 0c0,24.56 -15.72,44.66 -34.89,44.66l-566.62 0c-19.17,0 -34.89,-20.1 -34.89,-44.66l0 0c0,-24.56 15.7,-44.66 34.89,-44.66z"/>
 </g>
</svg>
