<?xml version="1.0" encoding="UTF-8"?>
<!DOCTYPE svg PUBLIC "-//W3C//DTD SVG 1.1//EN" "http://www.w3.org/Graphics/SVG/1.1/DTD/svg11.dtd">
<!-- Creator: CorelDRAW 2018 (64 Bit Versión de evaluación) -->
<svg xmlns="http://www.w3.org/2000/svg" xml:space="preserve" width="46.9278mm" height="47.1225mm" version="1.1" style="shape-rendering:geometricPrecision; text-rendering:geometricPrecision; image-rendering:optimizeQuality; fill-rule:evenodd; clip-rule:evenodd"
viewBox="0 0 1624.36 1631.1"
 xmlns:xlink="http://www.w3.org/1999/xlink">
 <defs>
  <style type="text/css">
   <![CDATA[
    .fil0 {fill:#005794}
   ]]>
  </style>
 </defs>
 <g id="Capa_x0020_1">
  <metadata id="CorelCorpID_0Corel-Layer"/>
  <path class="fil0" d="M1190.36 334.88l0 -0c29.7,-29.69 77.26,-30.27 106.23,-1.29 28.98,28.98 28.4,76.53 -1.29,106.23l-0 0 -378.18 378.18 378.18 378.17 0 0c29.69,29.7 30.27,77.25 1.29,106.23 -28.98,28.98 -76.53,28.4 -106.23,-1.29l-0 0 -378.18 -378.18 -380.62 380.63 -0 0c-29.7,29.7 -77.25,30.27 -106.23,1.29 -28.98,-28.98 -28.4,-76.54 1.29,-106.23l0 -0.01 380.62 -380.62 -380.62 -380.62 -0 0c-29.69,-29.7 -30.27,-77.26 -1.29,-106.23 28.98,-28.98 76.53,-28.4 106.23,1.29l0 0 380.62 380.62 378.18 -378.18zm-746.89 -334.88l364.38 0 592.63 0 1.27 0 8.66 0 140.37 0 0 0.01 0.34 0c37.54,0.17 68.49,28.91 73.23,66.1l0 9.93 0 135.25 -0 0 0 1044.59 0 9.93c-4.74,37.19 -35.69,65.92 -73.23,66.09l-0.34 0.01 0 0.01 -149.04 0c40.98,0 74.2,-34.04 74.2,-76.03l0 -0 0 -55.24 0 -987.14c-4.6,-36.68 -36.63,-65.09 -75.46,-65.1l-0 0 -55.24 0 -537.39 0 -364.38 0 -164.01 0 -55.24 0 -0 0c-40.04,0 -72.85,30.2 -75.81,68.53l0 1197.22c2.97,38.33 35.77,68.53 75.81,68.53l0 0 55.24 0 49.19 0 244.53 0 918.44 0 55.24 0 0.01 0c41.99,0 76.03,-33.22 76.03,-74.2l0 149.04 -0.01 0 -0 0.34c-0.17,37.54 -28.91,68.49 -66.09,73.23l-9.93 0 -973.67 0 -244.53 0 -104.43 0 -1.62 0 -8.31 0 -140.72 0 0 -0.01 -0.34 -0c-37.54,-0.17 -68.49,-28.91 -73.23,-66.1l0 -9.93 0 -1360.27 0 0 0 -118.76 0 -9.93c4.74,-37.19 35.69,-65.92 73.23,-66.1l0.34 -0 0 -0.01 140.72 0 8.32 0 1.61 0 219.25 0z"/>
 </g>
</svg>
