<svg id="baseline-contacts-24px" xmlns="http://www.w3.org/2000/svg" width="24" height="24" viewBox="0 0 24 24">
  <path id="Path_651" data-name="Path 651" d="M0,0H24V24H0ZM0,0H24V24H0ZM0,0H24V24H0Z" fill="none"/>
  <path id="Exclusion_1" data-name="Exclusion 1" d="M-1449.085,26.338H-1466V24.8a6.917,6.917,0,0,1,1.953-4.628,8.8,8.8,0,0,1,6.649-2.51,8.469,8.469,0,0,1,6.5,2.51,7.089,7.089,0,0,1,1.809,4.628v1.537Zm-8.124-4.664v2h3.275l1.582-2Zm-.333-5.062a3.81,3.81,0,0,1-3.806-3.806A3.81,3.81,0,0,1-1457.542,9a3.81,3.81,0,0,1,3.805,3.806A3.81,3.81,0,0,1-1457.542,16.612Z" transform="translate(1469.542 -5.794)" fill="#fff"/>
</svg>
