<svg xmlns="http://www.w3.org/2000/svg" width="30.606" height="21.958" viewBox="0 0 30.606 21.958">
  <g id="Icon_book" transform="translate(0 -58.303)">
    <g id="Group_402" data-name="Group 402" transform="translate(0 58.303)">
      <path id="Path_769" data-name="Path 769" d="M30.013,60.131H28v-.688a.593.593,0,0,0-.427-.593,16.711,16.711,0,0,0-4.277-.546,11.033,11.033,0,0,0-8,2.966,10.916,10.916,0,0,0-8-2.966,16.711,16.711,0,0,0-4.277.546.593.593,0,0,0-.427.593v.682h-2A.593.593,0,0,0,0,60.718V79.666a.592.592,0,0,0,.884.516A20.916,20.916,0,0,1,15.158,79H15.3a.594.594,0,0,0,.142,0c8.306-2.106,14.238,1.133,14.274,1.187a.593.593,0,0,0,.89-.51V60.724A.593.593,0,0,0,30.013,60.131ZM1.187,78.723V61.317H2.6V76.2a.593.593,0,0,0,.682.593,25.961,25.961,0,0,1,3.708-.3,15.388,15.388,0,0,1,5.066.765A21.809,21.809,0,0,0,1.187,78.723Zm5.808-3.411a26.1,26.1,0,0,0-3.227.208V59.911a16.363,16.363,0,0,1,3.518-.392,9.686,9.686,0,0,1,7.4,2.907L14.707,77.2A13.867,13.867,0,0,0,6.994,75.312Zm8.9-12.885a9.774,9.774,0,0,1,7.4-2.907,16.434,16.434,0,0,1,3.518.392V75.52a26.094,26.094,0,0,0-3.209-.214A13.983,13.983,0,0,0,15.893,77.2Zm13.52,16.3a21.814,21.814,0,0,0-10.9-1.465,15.425,15.425,0,0,1,5.09-.765,25.954,25.954,0,0,1,3.732.291.593.593,0,0,0,.682-.593V61.317h1.418Z" transform="translate(0 -58.303)" fill="#fff"/>
    </g>
  </g>
</svg>
