<svg xmlns="http://www.w3.org/2000/svg" width="22.588" height="24" viewBox="0 0 22.588 24">
  <g id="Icon_Facebook" transform="translate(-0.444 0.111)">
    <rect id="Rectangle_811" data-name="Rectangle 811" width="22.588" height="24" rx="5" transform="translate(0.444 -0.111)" fill="#fff"/>
    <path id="Path_764" data-name="Path 764" d="M690.469,235.7v9.137a.238.238,0,0,0,.238.238H694.1a.238.238,0,0,0,.238-.238v-9.286h2.46a.238.238,0,0,0,.237-.218l.237-2.8a.238.238,0,0,0-.237-.258h-2.7V230.3a.842.842,0,0,1,.842-.842h1.9a.238.238,0,0,0,.238-.238v-2.8a.238.238,0,0,0-.238-.238h-3.2a3.4,3.4,0,0,0-3.4,3.4v2.7h-1.7a.238.238,0,0,0-.238.238v2.8a.238.238,0,0,0,.238.238h1.7Z" transform="translate(-680.77 -221.202)" fill="#005794" fill-rule="evenodd"/>
  </g>
</svg>
